PathFileType	4	(X/Y/Z)	C:\Users\Basilio\Documents\Thesis Gigler\squatting_fais\c3dfiles\073\SLS_back_pre3\markers_experimental.trc
DataRate	CameraRate	NumFrames	NumMarkers	Units	OrigDataRate	OrigDataStartFrame	OrigNumFrames
200.000000	200.000000	4	61	mm	200.000000	823	1317
Frame#	Time	FHD			LBHD			RBHD			C7			T10			CLAV			LSHO			LUUPA			LMUPA			LDUPA			LLEP			LMEP			LRAD			LUL			LRFIN			RSHO			RUPA1			RMUPA			RDUPA			RLEP			RMEP			RUL			RUFIN			LASI			RASI			USACR			LSACR			RSACR			LTHI1			LTHI2			LTHI3			LTHI4			LLFC			LMFC			LTIB1			LTIB2			LTIB3			LTIB4			LLMAL			LMMAL			LHEE			LMT1			LMT2			LMT5			RTHI			RTHI2			RTHI3			RTHI4			RLFC			RMFC			RTIB1			RTIB2			RTIB3			RTIB4			RLMAL			RMMAL			RHEE			RMT1			RMT2			RMT5			RRAD			
		X1	Y1	Z1	X2	Y2	Z2	X3	Y3	Z3	X4	Y4	Z4	X5	Y5	Z5	X6	Y6	Z6	X7	Y7	Z7	X8	Y8	Z8	X9	Y9	Z9	X10	Y10	Z10	X11	Y11	Z11	X12	Y12	Z12	X13	Y13	Z13	X14	Y14	Z14	X15	Y15	Z15	X16	Y16	Z16	X17	Y17	Z17	X18	Y18	Z18	X19	Y19	Z19	X20	Y20	Z20	X21	Y21	Z21	X22	Y22	Z22	X23	Y23	Z23	X24	Y24	Z24	X25	Y25	Z25	X26	Y26	Z26	X27	Y27	Z27	X28	Y28	Z28	X29	Y29	Z29	X30	Y30	Z30	X31	Y31	Z31	X32	Y32	Z32	X33	Y33	Z33	X34	Y34	Z34	X35	Y35	Z35	X36	Y36	Z36	X37	Y37	Z37	X38	Y38	Z38	X39	Y39	Z39	X40	Y40	Z40	X41	Y41	Z41	X42	Y42	Z42	X43	Y43	Z43	X44	Y44	Z44	X45	Y45	Z45	X46	Y46	Z46	X47	Y47	Z47	X48	Y48	Z48	X49	Y49	Z49	X50	Y50	Z50	X51	Y51	Z51	X52	Y52	Z52	X53	Y53	Z53	X54	Y54	Z54	X55	Y55	Z55	X56	Y56	Z56	X57	Y57	Z57	X58	Y58	Z58	X59	Y59	Z59	X60	Y60	Z60	X61	Y61	Z61	

824	4.115	11.48435497283936	1295.822631835938	-761.2860107421876	-123.9205703735352	1277.623901367188	-791.151794433594	-154.070053100586	1262.849731445313	-658.9254150390626	-185.0796813964844	1193.631713867188	-724.2819213867189	-412.134002685547	961.508483886719	-750.2354125976564	-106.6942443847657	1061.064453125	-720.1571655273439	-109.6422500610352	1141.7568359375	-847.8667602539065	-37.39674377441407	1071.494506835938	-949.6079711914065	3.827827692031861	1083.558715820313	-923.5632324218752	21.31542205810547	1037.335205078125	-959.1535644531252	122.5133666992188	1002.661315917969	-961.4669189453127	113.0527725219727	946.1616210937502	-920.185729980469	377.9250488281251	1011.826416015625	-837.6754150390627	384.4586181640626	1008.140502929688	-912.0249023437502	460.105194091797	1015.883728027344	-826.6005859375002	-105.2104263305664	1129.57177734375	-592.0656738281251	-36.46135711669923	1031.243774414063	-481.3758850097657	5.075078010559083	1047.821166992188	-498.9280395507814	22.92558479309082	996.5262451171877	-473.2788085937501	113.7687911987305	971.5960693359377	-471.3663330078126	108.6772003173828	917.5072021484377	-534.5126953125001	376.7833862304688	1008.144348144531	-513.9484252929689	456.5485839843751	1027.370849609375	-590.7474975585939	-364.6296386718751	728.9229125976564	-857.9521484375002	-363.9921264648438	774.1766357421877	-618.3759155273439	-502.7669372558595	877.3171997070315	-748.7453002929689	-523.8206176757814	851.4236450195315	-772.277038574219	-530.9009399414064	862.5469970703127	-716.7787475585939	-407.9833068847657	425.9110107421876	-897.0842895507815	-369.2614440917969	352.7322387695313	-875.2114868164065	-330.0268554687501	359.4268188476563	-846.6062011718752	-398.6697387695314	301.2927856445313	-865.0257568359377	-409.413055419922	257.7025451660157	-865.4295654296877	-423.6963500976564	263.2850036621094	-729.0520019531251	-580.1585083007814	188.104476928711	-816.733825683594	-618.8594360351564	235.7030181884766	-879.3828125000002	-625.9526367187501	200.2446289062501	-854.2928466796877	-705.5654907226564	202.5516510009766	-825.6274414062502	-822.3374633789065	256.3419494628907	-868.2944946289065	-802.5720214843752	258.7189636230469	-780.9831542968752	-849.6016235351565	324.2189636230469	-837.270446777344	-878.721862792969	112.5585250854492	-762.4418945312501	-876.0571899414065	103.6188125610352	-799.5711059570315	-897.0318603515627	130.132568359375	-859.0525512695315	-343.1536560058594	617.6984252929689	-549.6204223632814	-278.3275146484376	607.6697998046876	-559.8501586914064	-257.9599609375001	631.9409179687501	-568.9905395507814	-241.9537200927735	535.3139648437501	-583.7184448242189	-148.1300964355469	445.421844482422	-628.2274169921876	-158.4775848388672	452.7138671875001	-753.3289794921876	-177.30712890625	302.2492065429688	-735.1673583984376	-227.1353912353516	231.1940155029297	-670.7675781250001	-212.6189117431641	224.7103729248047	-715.2877807617189	-255.6490325927735	199.7382507324219	-746.1130371093751	-350.2463073730469	95.1017303466797	-690.4932250976564	-343.6224365234376	126.409538269043	-777.935974121094	-430.2121582031251	82.08346557617189	-744.4688110351564	-205.6118164062501	54.87885665893556	-761.5639648437501	-205.8641967773438	51.89530181884767	-720.1074218750001	-248.5177764892579	35.20139694213868	-671.4263916015626	366.2616882324219	1001.078063964844	-586.8248901367189	
825	4.12	11.10897064208985	1296.59033203125	-761.2409057617189	-124.4132843017578	1278.5810546875	-791.1628417968752	-154.3459014892578	1263.836669921875	-658.9900512695314	-185.3778228759766	1194.4091796875	-724.1325683593751	-412.2735595703126	962.313415527344	-750.1224975585939	-106.8681869506836	1061.994262695313	-720.0438842773439	-109.939567565918	1142.562255859375	-847.8193359375002	-37.81757736206055	1072.506225585938	-949.497985839844	3.213294982910157	1084.446044921875	-923.729675292969	21.07474327087403	1038.405151367188	-959.076843261719	122.2656478881836	1003.725158691406	-961.4282836914065	112.6405029296875	947.168884277344	-920.214782714844	377.6116027832032	1012.886962890625	-837.5964965820315	384.3979797363282	1009.421875	-912.0115966796877	459.6507873535157	1017.051696777344	-826.532897949219	-105.4608688354492	1130.392944335938	-592.0249633789064	-36.74458694458009	1032.074829101563	-481.3385314941407	4.851740360260011	1048.709594726563	-498.8081054687501	22.67693138122559	997.4932250976565	-473.3350219726564	113.5749282836914	972.4831542968752	-471.2911376953126	108.3884811401367	918.4592895507815	-534.6412963867189	376.5487060546876	1009.188659667969	-513.9306640625001	456.3560485839845	1028.484619140625	-590.7147827148439	-364.8959045410157	729.8950195312501	-858.0835571289065	-363.9820251464844	775.1519165039065	-618.5397338867189	-502.9776306152345	878.0493774414065	-748.7489013671876	-524.1875000000001	852.1174316406252	-772.2334594726565	-531.1500854492189	863.2684326171877	-716.7708740234376	-407.6916809082032	426.9481201171876	-897.6785278320315	-368.9947814941407	353.8164672851563	-875.3940429687502	-329.5609741210938	360.4755249023438	-846.7620239257815	-398.0631408691407	302.2364807128907	-865.1779785156252	-408.7736206054689	258.5261535644532	-865.6149902343752	-422.9820556640626	264.1039428710938	-729.1504516601564	-579.3225708007814	188.6938934326172	-816.6475219726565	-618.2821655273439	235.9601287841797	-879.3908691406252	-625.0065307617189	200.7153778076172	-854.2495117187502	-704.7578735351564	202.8735351562501	-825.4500122070315	-821.6609497070315	256.2904357910157	-868.2553710937502	-801.8045654296877	258.9425354003907	-780.963317871094	-849.0554809570315	324.2383728027344	-837.4041748046877	-877.6109619140627	112.7354202270508	-762.0213623046876	-877.3055419921877	103.1175155639649	-800.8391113281252	-896.0280761718752	129.8838958740235	-858.6472778320315	-343.3328552246094	618.2249145507814	-549.7891845703126	-278.4592285156251	608.0814819335939	-559.9852294921876	-258.0874938964844	632.3276367187501	-569.2056884765626	-242.2112426757813	535.6697387695314	-583.8973388671876	-148.4244689941407	445.6643676757814	-628.2650756835939	-158.7847137451172	452.9276733398439	-753.5631713867189	-177.5550384521485	302.4298400878907	-735.2230224609376	-227.2565307617188	231.3286132812501	-670.8218383789064	-212.8067474365235	224.7477264404297	-715.3007812500001	-255.7647857666016	199.8324279785157	-746.2413940429689	-350.2437438964844	95.10542297363283	-690.5115356445314	-343.6525878906251	126.3763198852539	-777.8963623046877	-430.190399169922	82.07722473144533	-744.4885253906251	-205.7359466552735	54.82007980346681	-761.6554565429689	-205.8627319335938	51.91984176635744	-720.1035156250001	-248.5261230468751	35.1938705444336	-671.3847656250001	365.9225463867188	1002.172119140625	-586.8267211914064	
826	4.125	11.03665065765381	1297.591552734375	-761.1638183593751	-124.8074569702149	1279.283325195313	-791.092468261719	-154.6218566894532	1264.784301757813	-658.8951416015626	-185.7261810302735	1195.261474609375	-724.1058959960939	-412.6170349121095	963.1215820312502	-750.0752563476564	-107.083251953125	1062.84228515625	-720.1024780273439	-110.2655105590821	1143.548461914063	-847.738708496094	-38.15448379516602	1073.472778320313	-949.5095214843752	3.081702709197999	1085.4755859375	-923.5158691406252	20.87950134277344	1039.426391601563	-959.1360473632815	122.0138778686524	1004.840209960938	-961.4774169921877	112.4994735717774	948.4086914062502	-920.0820312500002	377.1902160644532	1014.268432617188	-837.6206054687502	383.7875366210938	1010.672058105469	-912.076843261719	459.3706665039064	1018.39697265625	-826.4948730468752	-105.7311019897461	1131.419921875	-592.0714721679689	-36.91509628295899	1032.890625	-481.3489685058595	4.61714792251587	1049.619995117188	-498.8386230468751	22.52878379821778	998.3798828125002	-473.4231262207032	113.3349380493164	973.4251098632815	-471.3088684082032	108.2507553100586	919.4644165039065	-534.6586914062501	376.4077758789063	1010.258911132813	-513.9906616210939	456.168182373047	1029.556274414063	-590.7313232421876	-365.2245788574219	730.8711547851564	-858.1419067382815	-364.1482543945313	775.9279785156252	-618.6390380859376	-503.1784667968751	878.8199462890627	-748.7572021484376	-524.4675292968751	852.8809814453127	-772.2510375976565	-531.3580322265626	863.9854736328127	-716.7730102539064	-407.4318847656251	428.010711669922	-897.8477172851565	-368.3971252441407	354.8867187500001	-875.803161621094	-329.0861206054688	361.5531005859376	-846.9925537109377	-397.6461181640626	303.1183471679688	-865.3135375976565	-408.1588745117189	259.4065551757813	-865.8354492187502	-422.2347106933595	264.9496154785157	-729.2162475585939	-578.5053100585939	189.190414428711	-816.8199462890627	-617.4775390625001	236.4487915039063	-879.441833496094	-624.2643432617189	201.3076782226563	-854.2923583984377	-704.0503540039064	203.1936035156251	-825.4111328125002	-820.7843017578127	256.2215576171876	-868.2109985351565	-801.1526489257815	259.1687622070313	-780.9956054687502	-848.5596313476565	324.2303466796876	-837.4619140625002	-876.645202636719	112.9334030151367	-761.3739013671876	-876.5451660156252	103.2277450561524	-800.5985107421877	-895.2819824218752	129.8307495117188	-858.132263183594	-343.4729614257813	618.7048950195314	-549.9041137695314	-278.6304626464844	608.4620361328126	-560.2902221679689	-258.2237854003907	632.6970825195314	-569.4298095703126	-242.4940643310547	536.0402832031251	-584.1052856445314	-148.7445373535157	445.8840332031251	-628.3812255859376	-159.1499633789063	453.1149291992189	-753.6838989257814	-177.9532318115235	302.5599060058594	-735.2772216796876	-227.4616851806641	231.4495239257813	-670.9752197265626	-212.9788360595704	224.8746337890626	-715.3018188476564	-255.7794036865235	199.9688110351563	-746.2381591796876	-350.2699890136719	95.11780548095705	-690.5216064453126	-343.7063903808594	126.4290618896485	-777.8935546875002	-430.2328186035157	82.06311798095705	-744.4984130859376	-205.609603881836	54.88135910034181	-761.5613403320314	-205.8864746093751	51.92873764038087	-720.1588745117189	-248.5393371582032	35.2036247253418	-671.4123535156251	365.8022766113282	1003.35888671875	-586.4210205078126	
827	4.13	10.45256614685059	1298.39794921875	-761.1581420898439	-124.9673919677735	1280.213134765625	-791.0234375000002	-154.9784088134766	1265.442260742188	-658.6533813476564	-186.0112915039063	1196.14501953125	-724.0258789062501	-412.8915100097657	964.0402832031252	-750.1328735351564	-107.5429306030274	1063.724731445313	-720.0965576171876	-110.6042861938477	1144.527709960938	-847.6187133789065	-38.48252487182618	1074.5673828125	-949.5410766601565	2.647491216659546	1086.558837890625	-923.494079589844	20.33237075805664	1040.43017578125	-959.1030883789065	121.6307754516602	1005.811462402344	-961.5698852539065	112.258285522461	949.286071777344	-920.4099731445315	376.9760131835938	1015.441955566406	-837.530456542969	383.4878234863282	1011.849487304688	-911.9488525390627	458.8508605957032	1019.654968261719	-826.3242797851565	-105.9584274291992	1132.275268554688	-592.0292358398439	-37.15251541137696	1033.814331054688	-481.3491821289064	4.434256553649903	1050.469116210938	-498.8781127929689	22.30383491516114	999.1892700195315	-473.3054504394532	113.1542358398438	974.2537231445315	-471.4222412109376	108.0324859619141	920.3157958984377	-534.6307373046876	376.1254577636719	1011.290710449219	-514.0521850585939	455.9599914550782	1030.696166992188	-590.8284301757814	-365.4693908691407	731.7730102539064	-858.3205566406252	-364.2998352050782	776.7061767578127	-618.7863159179689	-503.5485839843751	879.6714477539065	-748.7579956054689	-524.7622680664064	853.6682739257815	-772.2701416015627	-531.5839843750001	864.612487792969	-716.7438354492189	-407.3706054687501	428.767303466797	-897.9107666015627	-368.0299987792969	355.7695922851563	-875.9561767578127	-328.6939086914063	362.6419982910157	-847.1318969726565	-397.1780395507814	304.0663452148438	-865.4691162109377	-407.4751281738282	260.3858032226563	-865.9312744140627	-421.4908752441407	265.9277038574219	-729.3867797851564	-577.6654663085939	189.715576171875	-816.9670410156252	-616.4743652343751	237.0007629394532	-879.5439453125002	-623.5739135742189	201.6817474365235	-854.2592773437502	-703.2395629882814	203.4598388671876	-825.3887329101565	-820.127136230469	256.2081909179688	-868.1530761718752	-800.465026855469	259.3740539550782	-781.0298461914065	-848.004577636719	324.2912902832032	-837.607604980469	-875.8440551757815	113.0755462646485	-761.0684814453126	-875.4460449218752	103.4334793090821	-799.8523559570315	-894.2285766601565	129.5662078857422	-857.4779052734377	-343.6484069824219	619.1699829101564	-550.0217285156251	-278.7889709472657	608.8532714843751	-560.4176635742189	-258.3838500976563	633.0796508789064	-569.6019897460939	-242.7905883789063	536.4240722656251	-584.2332153320314	-149.1331939697266	446.1189880371095	-628.4941406250001	-159.6274719238282	453.2810363769532	-753.8695068359376	-178.3326568603516	302.7606811523438	-735.3973388671876	-227.6041107177735	231.6169586181641	-671.0379028320314	-213.1057586669922	225.0080261230469	-715.3930053710939	-255.9716796875001	200.0419616699219	-746.3020629882814	-350.2622375488282	95.1299285888672	-690.5181884765626	-343.6837768554688	126.4119262695313	-777.9321289062502	-430.195770263672	82.0637664794922	-744.4878540039064	-205.6067352294922	54.86358642578126	-761.5404052734376	-205.8648376464844	51.95627212524415	-720.1325683593751	-248.5213165283204	35.22533798217774	-671.4218139648439	365.6703796386719	1004.243286132813	-586.8223266601564	
